<?xml version="1.0" encoding="UTF-8"?>
<svg version="1.1" xmlns="http://www.w3.org/2000/svg" width="1024" height="1024">
<path d="M0 0 C337.92 0 675.84 0 1024 0 C1024 337.92 1024 675.84 1024 1024 C686.08 1024 348.16 1024 0 1024 C0 686.08 0 348.16 0 0 Z " fill="#EEF0F5" transform="translate(0,0)"/>
<path d="M0 0 C0 0.66 0 1.32 0 2 C0.680625 2.11214844 1.36125 2.22429687 2.0625 2.33984375 C15.12357381 4.99721648 25.85365664 12.39559446 36.75 19.75 C37.75111816 20.42095703 37.75111816 20.42095703 38.77246094 21.10546875 C41.71549882 23.14516801 43.89651129 24.86931718 46.140625 27.703125 C47.80410805 30.14473373 47.80410805 30.14473373 50.33203125 30.9140625 C54.28377388 32.52253168 56.7453882 35.34958946 59.6875 38.375 C60.26822266 38.9525 60.84894531 39.53 61.44726562 40.125 C64.26861711 42.98222995 66.21718206 45.39073667 68 49 C68.721875 49.721875 69.44375 50.44375 70.1875 51.1875 C76.94526924 57.94526924 82.03577568 65.8778409 87 74 C87.65742187 75.04607422 87.65742187 75.04607422 88.328125 76.11328125 C90.35958392 79.45374362 91 80.97115317 91 85 C91.66 85 92.32 85 93 85 C93.50615298 86.26839526 94.00469099 87.53983102 94.5 88.8125 C94.91765625 89.87404297 94.91765625 89.87404297 95.34375 90.95703125 C96 93 96 93 96 96 C96.66 96 97.32 96 98 96 C98.67413211 97.91405367 99.3390332 99.83136026 100 101.75 C100.37125 102.81734375 100.7425 103.8846875 101.125 104.984375 C102 108 102 108 102 112 C102.66 112 103.32 112 104 112 C104.81783278 115.35288912 105.62829214 118.70751977 106.4375 122.0625 C106.78264648 123.47692383 106.78264648 123.47692383 107.13476562 124.91992188 C107.35712891 125.84482422 107.57949219 126.76972656 107.80859375 127.72265625 C108.01282959 128.56578369 108.21706543 129.40891113 108.42749023 130.27758789 C109.70430932 136.34914852 110.18479968 142.26863955 110.2734375 148.44921875 C110.29222961 149.65285065 110.29222961 149.65285065 110.31140137 150.88079834 C110.61668621 175.18954256 109.51781471 198.61282718 100.33203125 221.484375 C99.3352362 224.11521238 98.57694458 226.52036602 97.92578125 229.234375 C97.03480205 232.85844229 95.79169943 235.74236467 94 239 C93.34 239 92.68 239 92 239 C91.9175 239.845625 91.835 240.69125 91.75 241.5625 C90.84266147 245.72113491 89.23458727 248.39582699 87 252 C86.34 252 85.68 252 85 252 C84.84132446 253.10734497 84.84132446 253.10734497 84.67944336 254.23706055 C83.94743341 257.21376071 82.98305262 258.79184748 81.12890625 261.20703125 C80.55462891 261.95791016 79.98035156 262.70878906 79.38867188 263.48242188 C78.78603516 264.25134766 78.18339844 265.02027344 77.5625 265.8125 C76.6643457 266.99489258 76.6643457 266.99489258 75.74804688 268.20117188 C72.433184 272.48859251 72.433184 272.48859251 71 274 C70.34 274 69.68 274 69 274 C68.73445313 274.58136719 68.46890625 275.16273438 68.1953125 275.76171875 C64.4705253 282.73656537 57.98970522 288.0121316 52 293 C51.23429687 293.66515625 50.46859375 294.3303125 49.6796875 295.015625 C11.87606316 327.15448606 -34.33602265 338.01177101 -83.06494141 334.79785156 C-88.46985069 334.25562141 -93.71627107 333.24153798 -99 332 C-99.90218262 331.79600586 -100.80436523 331.59201172 -101.73388672 331.38183594 C-127.23184738 325.52033385 -149.49689082 315.41478306 -170 299 C-170.78761719 298.41476562 -171.57523437 297.82953125 -172.38671875 297.2265625 C-193.22813388 281.44909452 -217.28736136 255.56214506 -222 229 C-222.66 229 -223.32 229 -224 229 C-227.50491685 220.20042152 -230.02786937 211.25040895 -232 202 C-232.18626953 201.13697266 -232.37253906 200.27394531 -232.56445312 199.38476562 C-235.33691034 186.0299802 -236.39351862 172.91504548 -236.4375 159.3125 C-236.44358276 158.60192444 -236.44966553 157.89134888 -236.45593262 157.15924072 C-236.51058169 147.43029665 -235.29382888 138.48161768 -233 129 C-232.73628049 127.57998339 -232.48673685 126.15712989 -232.26171875 124.73046875 C-230.63345543 114.68397333 -227.63078947 105.49410321 -224 96 C-223.34 96 -222.68 96 -222 96 C-221.89945312 95.14792969 -221.79890625 94.29585938 -221.6953125 93.41796875 C-216.97776106 70.22775802 -195.01173906 47.29602521 -178 32 C-177.34 32 -176.68 32 -176 32 C-176 31.34 -176 30.68 -176 30 C-173.6255842 27.75659221 -170.93118777 25.88613189 -168.3125 23.9375 C-167.59126953 23.38255859 -166.87003906 22.82761719 -166.12695312 22.25585938 C-165.42119141 21.72669922 -164.71542969 21.19753906 -163.98828125 20.65234375 C-163.34415283 20.16757568 -162.70002441 19.68280762 -162.03637695 19.18334961 C-159.70341166 17.82765092 -157.65428671 17.39415539 -155 17 C-155 16.34 -155 15.68 -155 15 C-152.90423789 13.48227257 -150.84168862 12.13476445 -148.625 10.8125 C-147.96032715 10.41466309 -147.2956543 10.01682617 -146.61083984 9.60693359 C-136.76965961 3.91803482 -126.02200751 0.28198328 -115.25878906 -3.2512207 C-113.76403027 -3.7467271 -112.27360492 -4.2555211 -110.78808594 -4.77807617 C-76.15754205 -16.84387003 -33.77610612 -13.29611698 0 0 Z " fill="#82ABE6" transform="translate(569,289)"/>
<path d="M0 0 C1.04994141 -0.01836914 1.04994141 -0.01836914 2.12109375 -0.03710938 C6.90865424 -0.05043283 10.82983766 0.67841067 15.375 2.1875 C15.375 2.8475 15.375 3.5075 15.375 4.1875 C16.365 4.2803125 16.365 4.2803125 17.375 4.375 C24.37280445 6.2702387 28.88365603 10.46804085 33.39453125 15.94921875 C35.72193723 18.57960066 38.24934055 20.85557053 40.875 23.1875 C51.9178905 33.06078587 51.9178905 33.06078587 54.3125 38.19921875 C55.98478439 41.32860387 58.6741491 43.11073974 61.40234375 45.30859375 C63.60783845 47.40927286 64.81399299 49.58057897 66.375 52.1875 C67.95275299 53.89896087 69.58136985 55.56451627 71.25 57.1875 C72.09304688 58.0125 72.93609375 58.8375 73.8046875 59.6875 C75.52285802 61.3586689 77.24161134 63.02923881 78.9609375 64.69921875 C81.22250299 67.03031457 83.16837392 69.41206935 85.125 72 C88.56331604 76.38794618 92.28895674 79.96243186 96.58984375 83.49609375 C98.375 85.1875 98.375 85.1875 99.375 88.1875 C101.13869652 89.89875037 101.13869652 89.89875037 103.25 91.5625 C106.43262241 94.25029773 108.2347414 96.62040234 110.375 100.1875 C111.66129831 101.36267103 112.97745194 102.50551933 114.3125 103.625 C117.73473405 106.49667355 119.96790379 109.40492024 122.375 113.1875 C123.70348691 114.19392948 125.03650329 115.19442179 126.375 116.1875 C126.808125 116.93 127.24125 117.6725 127.6875 118.4375 C129.6348714 121.61099413 131.95286009 123.8545426 134.6171875 126.4296875 C136.375 128.1875 136.375 128.1875 138.875 131.25 C140.82520218 133.54148756 142.51508967 135.19742509 144.8125 137.0625 C147.41710839 139.21242459 149.3597389 141.37097007 151.3125 144.125 C153.97399301 147.87106925 157.03038129 150.58218702 160.5390625 153.51953125 C163.09900967 155.84527049 164.69234365 158.17274071 166.375 161.1875 C166.375 161.8475 166.375 162.5075 166.375 163.1875 C167.035 163.1875 167.695 163.1875 168.375 163.1875 C168.705 165.1675 169.035 167.1475 169.375 169.1875 C170.035 169.1875 170.695 169.1875 171.375 169.1875 C173.65440655 174.6635245 173.70812997 179.66997137 173.6875 185.5 C173.70361328 186.39912109 173.71972656 187.29824219 173.73632812 188.22460938 C173.74510296 200.36021216 169.12617405 209.02508692 160.8359375 217.8203125 C150.29632118 227.18231806 138.97720103 228.90461181 125.47021484 228.33105469 C114.57982945 227.58489451 105.12164532 221.53767937 97.9375 213.5625 C96.4164083 211.77105268 94.89559785 209.97936653 93.375 208.1875 C91.3536186 205.96021816 89.30149616 203.76202594 87.25 201.5625 C84.09884331 198.16387794 80.96583219 194.75925839 77.9375 191.25 C74.16064771 186.87924464 70.20694564 182.6741819 66.25610352 178.46118164 C63.42273421 175.43064822 60.64262584 172.36666798 57.921875 169.234375 C54.41909975 165.20850831 50.79066576 161.3148315 47.125 157.4375 C40.81791121 150.73797013 34.57732432 143.98405898 28.375 137.1875 C26.54274074 135.18651471 24.70887582 133.18700369 22.875 131.1875 C20.13590174 128.19996626 17.39722782 125.21204698 14.66015625 122.22265625 C13.75264888 121.23172989 12.8450967 120.24084455 11.9375 119.25 C11.48777832 118.75902832 11.03805664 118.26805664 10.57470703 117.76220703 C6.63821065 113.46797438 2.68280826 109.19135161 -1.27392578 104.91577148 C-4.3598999 101.57540348 -7.40939696 98.20562055 -10.4375 94.8125 C-13.50222168 91.38884696 -16.66699135 88.11991728 -19.94140625 84.8984375 C-22.38667417 82.41345526 -24.66404998 79.79760617 -26.93359375 77.15234375 C-28.01195683 75.89964946 -29.10685687 74.66087403 -30.22265625 73.44140625 C-39.2357153 63.46019252 -42.5203725 52.80941049 -42.05078125 39.484375 C-41.06385802 26.02799762 -34.38464096 16.04318677 -24.625 7.1875 C-21.625 5.1875 -21.625 5.1875 -17.625 5.1875 C-17.625 4.5275 -17.625 3.8675 -17.625 3.1875 C-16.66787109 2.98833984 -16.66787109 2.98833984 -15.69140625 2.78515625 C-14.86511719 2.60855469 -14.03882813 2.43195313 -13.1875 2.25 C-11.95193359 1.98896484 -11.95193359 1.98896484 -10.69140625 1.72265625 C-4.05364021 0.00361287 -4.05364021 0.00361287 0 0 Z " fill="#EBEDF2" transform="translate(440.625,335.8125)"/>
<path d="M0 0 C0 0.66 0 1.32 0 2 C1.30130859 2.07541016 1.30130859 2.07541016 2.62890625 2.15234375 C6.88910194 3.22356329 9.04295867 5.44526535 11.9375 8.5625 C12.45820068 9.10318115 12.97890137 9.6438623 13.51538086 10.20092773 C16.98445173 13.82962008 20.35690461 17.54442912 23.59765625 21.37890625 C24.9927538 23.04660349 24.9927538 23.04660349 26.68359375 24.58984375 C28 26 28 26 28 28 C28.66 28 29.32 28 30 28 C31.3046875 29.29296875 31.3046875 29.29296875 32.875 31.1875 C36.08206239 34.96012319 39.38243389 38.62152821 42.75 42.25 C43.79433323 43.37754638 44.83860352 44.50515106 45.8828125 45.6328125 C46.40262695 46.19387695 46.92244141 46.75494141 47.45800781 47.33300781 C66.48250963 67.89971117 66.48250963 67.89971117 73.25 75.75 C77.33325816 80.45546893 81.62462298 84.96716661 85.88574219 89.51074219 C88.80817217 92.63246414 91.71189954 95.75669947 94.5 99 C96.78529047 101.63991042 99.11979955 104.21342843 101.52734375 106.7421875 C102.16800781 107.42023438 102.80867187 108.09828125 103.46875 108.796875 C104.76784397 110.16814086 106.07115314 111.53542722 107.37890625 112.8984375 C108.27222656 113.84203125 108.27222656 113.84203125 109.18359375 114.8046875 C109.72556396 115.37171387 110.26753418 115.93874023 110.82592773 116.52294922 C112 118 112 118 112 120 C112.66 120 113.32 120 114 120 C115.3046875 121.29296875 115.3046875 121.29296875 116.875 123.1875 C120.11926047 127.00626493 123.46589117 130.7043955 126.875 134.375 C127.91292855 135.49854262 128.95068962 136.62223998 129.98828125 137.74609375 C131.87429385 139.78702238 133.76794222 141.81966307 135.66796875 143.84765625 C136.45816406 144.70230469 137.24835938 145.55695313 138.0625 146.4375 C139.10083984 147.54931641 139.10083984 147.54931641 140.16015625 148.68359375 C145.51885653 155.43032255 145.90767945 161.65750796 145 170 C143.31598348 175.95590022 140.00556213 179.51786982 135 183 C134.34 183 133.68 183 133 183 C133 183.66 133 184.32 133 185 C129.8234489 186.05885037 127.40011989 186.20049266 124.0625 186.25 C123.02222656 186.27578125 121.98195313 186.3015625 120.91015625 186.328125 C117.63500284 185.95884596 116.44494025 185.12253055 114 183 C113.175 182.690625 112.35 182.38125 111.5 182.0625 C107.68814524 180.44246173 105.64404557 178.14171715 103.625 174.5625 C102.03994372 171.77410098 102.03994372 171.77410098 99 169.5 C96 167 96 167 94.71484375 164.71875 C92.48435791 161.18248998 89.68259764 158.74708038 86.5625 156 C81.93956587 151.90228111 77.64240674 147.98619408 74.625 142.5 C73.02706158 139.77243675 73.02706158 139.77243675 70 137.5 C67 135 67 135 65.5625 132.5625 C64.02985505 130.04896228 62.74816144 128.83513805 60.5 127 C57.53086768 124.57520861 55.97544024 122.29240041 54 119 C52.86004378 117.96965495 51.6901389 116.97194677 50.5 116 C48.29998669 114.20248393 47.02233915 113.03787943 45.5625 110.5625 C43.98367059 107.97321978 42.54695403 106.62871163 40.25 104.6875 C34.66230932 99.96420345 29.30479574 94.60959148 26 88 C26 87.34 26 86.68 26 86 C25.44957031 85.76539063 24.89914062 85.53078125 24.33203125 85.2890625 C16.69099913 81.0653764 6.69513715 72.06687776 3.06640625 63.8984375 C2.1639796 61.86781263 2.1639796 61.86781263 0.203125 61.1328125 C-3.06138862 59.45425053 -4.99080161 56.68621792 -7.25 53.875 C-11.13313349 49.13774731 -15.11473355 44.73637683 -19.63671875 40.5859375 C-21 39 -21 39 -21 36 C-22.32 35.34 -23.64 34.68 -25 34 C-25 33.01 -25 32.02 -25 31 C-25.66 31 -26.32 31 -27 31 C-28.92563689 23.77886166 -29.10321514 16.40322714 -25.33203125 9.8203125 C-18.62646017 0.6566875 -10.77201523 -0.34501116 0 0 Z " fill="#81A8E1" transform="translate(448,358)"/>
<path d="M0 0 C2.89662944 2.12640008 5.48550748 4.43634142 8 7 C8 4.36 8 1.72 8 -1 C15.59 -1 23.18 -1 31 -1 C31 26.72 31 54.44 31 83 C23.41 83 15.82 83 8 83 C8 80.03 8 77.06 8 74 C7.34 74 6.68 74 6 74 C5.76796875 74.59425781 5.5359375 75.18851563 5.296875 75.80078125 C3.66895559 78.56137952 1.99967192 79.56686003 -0.75 81.1875 C-1.59046875 81.69667969 -2.4309375 82.20585938 -3.296875 82.73046875 C-11.81474556 86.73091374 -23.73739227 86.19182618 -32.515625 83.1796875 C-39.37484975 79.92263424 -45.66349007 75.27281204 -50 69 C-50 68.01 -50 67.02 -50 66 C-50.66 66 -51.32 66 -52 66 C-56.47797313 57.68376419 -58.56691307 50.18561119 -58.5 40.75 C-58.49572998 39.8326709 -58.49145996 38.9153418 -58.48706055 37.97021484 C-58.29149924 30.1159754 -56.7838755 23.96863739 -53 17 C-52.6390625 16.32066406 -52.278125 15.64132812 -51.90625 14.94140625 C-46.28058043 5.92024326 -36.95122014 0.81368365 -27 -2 C-26.0409375 -2.28810547 -26.0409375 -2.28810547 -25.0625 -2.58203125 C-16.90509512 -4.23514171 -7.51569994 -3.70042951 0 0 Z " fill="#343681" transform="translate(639,709)"/>
<path d="M0 0 C27.39 0 54.78 0 83 0 C83 7.26 83 14.52 83 22 C63.86 22 44.72 22 25 22 C25 29.26 25 36.52 25 44 C42.16 44 59.32 44 77 44 C77 51.26 77 58.52 77 66 C59.84 66 42.68 66 25 66 C25 73.92 25 81.84 25 90 C44.47 90 63.94 90 84 90 C84 97.26 84 104.52 84 112 C56.28 112 28.56 112 0 112 C0 75.04 0 38.08 0 0 Z " fill="#2E317D" transform="translate(355,680)"/>
<path d="M0 0 C1.3149646 0.00314209 1.3149646 0.00314209 2.65649414 0.00634766 C9.54401235 0.17419528 14.28968161 1.72766323 20.0625 5.5 C20.89265625 5.80164063 21.7228125 6.10328125 22.578125 6.4140625 C25.47041231 7.67830129 26.85016326 9.10019349 28.875 11.5 C29.47957031 12.20125 30.08414063 12.9025 30.70703125 13.625 C32.0625 15.5 32.0625 15.5 32.0625 17.5 C32.7225 17.5 33.3825 17.5 34.0625 17.5 C35.0701952 19.2664657 36.06841714 21.03833823 37.0625 22.8125 C37.619375 23.79863281 38.17625 24.78476562 38.75 25.80078125 C40.0625 28.5 40.0625 28.5 40.0625 31.5 C40.7225 31.5 41.3825 31.5 42.0625 31.5 C42.11705124 34.16694948 42.15643392 36.83275498 42.1875 39.5 C42.20425781 40.24378906 42.22101563 40.98757813 42.23828125 41.75390625 C42.39407218 59.66986279 31.07946615 72.35358226 19.19140625 84.484375 C15.51517761 88.19052072 11.79243396 91.84806317 8.0625 95.5 C5.13676994 98.38537516 2.42930562 101.13664464 0.0625 104.5 C-3.12621281 104.20879335 -3.9992718 103.43337922 -6.2265625 101.03125 C-6.99742187 100.0309375 -7.76828125 99.030625 -8.5625 98 C-11.27946441 94.18932805 -11.27946441 94.18932805 -14.9375 91.5 C-14.38614367 87.62746871 -12.71183608 85.9788161 -9.90234375 83.34765625 C-8.68901367 82.18266602 -8.68901367 82.18266602 -7.45117188 80.99414062 C-5.73360337 79.37293305 -4.01223924 77.7557373 -2.28710938 76.14257812 C-1.47951172 75.36462891 -0.67191406 74.58667969 0.16015625 73.78515625 C0.90789307 73.08269775 1.65562988 72.38023926 2.42602539 71.65649414 C4.40470282 69.04905601 4.48983475 67.70041382 4.0625 64.5 C2.54162153 62.97912153 1.18210515 63.22067662 -0.9375 63.125 C-5.7992044 63.14048314 -8.80959332 64.74806221 -12.796875 67.40625 C-15.36286505 68.71733981 -17.09227947 68.77097338 -19.9375 68.5 C-22.15225098 66.28524902 -21.34210495 60.53803811 -21.45507812 57.40234375 C-21.63704518 53.63253568 -21.79992861 51.70635708 -23.9375 48.5 C-28.06504452 47.12415183 -31.64916287 46.48525572 -35.9375 47.5 C-38.27614827 49.44262049 -40.11788261 51.47547826 -42.015625 53.84765625 C-43.9375 55.5 -43.9375 55.5 -46.37109375 55.5546875 C-49.73058984 54.17407267 -51.38136123 52.3003793 -53.75 49.5625 C-54.93529297 48.21865234 -54.93529297 48.21865234 -56.14453125 46.84765625 C-57.9375 44.5 -57.9375 44.5 -57.9375 42.5 C-58.5975 42.5 -59.2575 42.5 -59.9375 42.5 C-58.30988997 38.5213977 -55.53827598 35.69690056 -52.625 32.625 C-51.66918934 31.60806948 -50.71475695 30.58984174 -49.76171875 29.5703125 C-49.2929834 29.06918945 -48.82424805 28.56806641 -48.34130859 28.05175781 C-46.90825586 26.46767378 -45.55483202 24.83661689 -44.20703125 23.1796875 C-41.9375 20.5 -41.9375 20.5 -39.9375 19.5 C-39.6075 18.51 -39.2775 17.52 -38.9375 16.5 C-37.49129908 15.25100829 -36.03833568 14.0079254 -34.53515625 12.828125 C-32.7180292 11.38710147 -32.7180292 11.38710147 -30.625 8.875 C-27.02005686 5.6892363 -23.48261731 4.81569185 -18.9375 3.5 C-18.29288818 3.25733398 -17.64827637 3.01466797 -16.98413086 2.76464844 C-11.23366539 0.64462624 -6.11384555 -0.04346475 0 0 Z " fill="#EFF1F4" transform="translate(573.9375,337.5)"/>
<path d="M0 0 C22.56606367 -1.90163458 22.56606367 -1.90163458 27.95214844 1.08105469 C31.08599528 4.13704198 32.46781732 7.98899948 34 12 C35.07121094 13.58941406 35.07121094 13.58941406 36.1640625 15.2109375 C38 18 38 18 38 21 C38.66 21 39.32 21 40 21 C40.66 21.66 41.32 22.32 42 23 C42.34780518 22.40985107 42.69561035 21.81970215 43.05395508 21.21166992 C44.63548213 18.53416543 46.2239023 15.86081492 47.8125 13.1875 C48.35970703 12.25873047 48.90691406 11.32996094 49.47070312 10.37304688 C50.00244141 9.48037109 50.53417969 8.58769531 51.08203125 7.66796875 C51.81256714 6.43469849 51.81256714 6.43469849 52.55786133 5.17651367 C55.03676487 1.43528715 55.03676487 1.43528715 57 0 C59.63549805 -0.34057617 59.63549805 -0.34057617 62.76171875 -0.29296875 C63.87998047 -0.28330078 64.99824219 -0.27363281 66.15039062 -0.26367188 C67.90125977 -0.2259668 67.90125977 -0.2259668 69.6875 -0.1875 C70.86634766 -0.17396484 72.04519531 -0.16042969 73.25976562 -0.14648438 C76.17363411 -0.11109326 79.08658945 -0.06171809 82 0 C81.25126762 3.38651303 80.18002746 5.34270613 78 8.0625 C76.0569079 10.49603602 74.9987139 12.00385831 74 15 C73.34 15 72.68 15 72 15 C71.72929688 15.7321875 71.45859375 16.464375 71.1796875 17.21875 C70.04361461 19.89717351 68.75676753 22.09884985 67.125 24.5 C66.32642578 25.675625 66.32642578 25.675625 65.51171875 26.875 C64.38228465 28.46262829 63.17741588 29.99707166 61.9375 31.5 C59.16444933 35.07812989 57.12090298 39.01026858 55 43 C55.66 43 56.32 43 57 43 C58.31274414 44.51293945 58.31274414 44.51293945 59.78515625 46.61328125 C60.58083008 47.7434668 60.58083008 47.7434668 61.39257812 48.89648438 C61.94365234 49.69376953 62.49472656 50.49105469 63.0625 51.3125 C63.61744141 52.09818359 64.17238281 52.88386719 64.74414062 53.69335938 C68.86248666 59.58745997 68.86248666 59.58745997 70 63 C70.66 63 71.32 63 72 63 C72.495 63.9075 72.99 64.815 73.5 65.75 C76.18682733 70.49088735 79.30517514 74.93836603 82.390625 79.42578125 C84 82 84 82 84 84 C79.72939382 84.11589162 75.45919016 84.18714802 71.1875 84.25 C69.97255859 84.28351563 68.75761719 84.31703125 67.50585938 84.3515625 C65.76079102 84.37089844 65.76079102 84.37089844 63.98046875 84.390625 C62.37014771 84.4220459 62.37014771 84.4220459 60.72729492 84.45410156 C58 84 58 84 56.1262207 82.16308594 C55 80 55 80 55 77 C54.34 77 53.68 77 53 77 C49.34538278 72.41900348 46.51265161 67.27656839 44 62 C43.34 61.01 42.68 60.02 42 59 C41.34 59 40.68 59 40 59 C35.83668308 64.1387226 32.81351576 70.04833204 30 76 C29.34 76 28.68 76 28 76 C27.690625 76.78375 27.38125 77.5675 27.0625 78.375 C26 81 26 81 25 83 C16.42 83 7.84 83 -1 83 C1.24901186 76.25296443 1.24901186 76.25296443 3.25 73.625 C3.68876465 73.03904053 4.1275293 72.45308105 4.57958984 71.84936523 C5.0483252 71.23907471 5.51706055 70.62878418 6 70 C6.99311769 68.67908426 7.98528286 67.35745191 8.9765625 66.03515625 C9.47961914 65.36758301 9.98267578 64.70000977 10.50097656 64.01220703 C13.26040942 60.30809537 15.9106195 56.52568732 18.5625 52.74414062 C21.21128859 49.00069961 24.03058209 45.48880373 27 42 C25.56603319 38.85521139 23.80270186 36.36445665 21.625 33.6875 C17.98527552 29.08476508 14.87169841 24.61509523 13 19 C12.34 19 11.68 19 11 19 C10.566875 18.0925 10.13375 17.185 9.6875 16.25 C8.15019164 13.07225128 8.15019164 13.07225128 6.3125 10.75 C5 9 5 9 5 7 C4.34 7 3.68 7 3 7 C2.67 5.68 2.34 4.36 2 3 C1.34 3 0.68 3 0 3 C0 2.01 0 1.02 0 0 Z " fill="#333581" transform="translate(448,708)"/>
<path d="M0 0 C3.57435352 1.64678381 5.23792376 3.29655713 7.5625 6.5 C9.65818386 9.37514757 10.99811934 10.99874622 14 13 C13.38722388 15.96175123 12.74627478 17.38058783 11 20 C10.34 20 9.68 20 9 20 C9 20.66 9 21.32 9 22 C8.34 22 7.68 22 7 22 C7 22.66 7 23.32 7 24 C6.34 24 5.68 24 5 24 C5 24.66 5 25.32 5 26 C3.37829747 27.73660048 1.72096655 29.36433353 0 31 C-3.05211181 33.96858186 -6.08889339 36.95256373 -9.125 39.9375 C-9.93582031 40.72318359 -10.74664062 41.50886719 -11.58203125 42.31835938 C-18.30307002 48.85385153 -18.30307002 48.85385153 -21.36328125 57.52734375 C-21.21579883 64.5270863 -20.57551662 71.39130221 -16 77 C-8.4958181 83.66019078 0.63394454 82.48389494 10 82 C10 81.34 10 80.68 10 80 C10.99 80 11.98 80 13 80 C13 79.34 13 78.68 13 78 C13.66 78 14.32 78 15 78 C15 77.34 15 76.68 15 76 C15.66 76 16.32 76 17 76 C17.22059082 75.45706299 17.44118164 74.91412598 17.66845703 74.35473633 C19.43349777 71.23339091 21.80188617 68.85375137 24.3046875 66.32421875 C24.82507599 65.79480179 25.34546448 65.26538483 25.88162231 64.71992493 C26.98003406 63.60704659 28.08124348 62.49692348 29.18505859 61.3894043 C30.87462943 59.68787319 32.54465115 57.96857607 34.21484375 56.24804688 C35.28530591 55.16812728 36.35688322 54.08931169 37.4296875 53.01171875 C37.92773895 52.49413498 38.42579041 51.97655121 38.93893433 51.44328308 C40.37451172 50.02612305 40.37451172 50.02612305 43 48 C45.95299247 48.10030985 46.74773324 48.76670452 48.921875 50.77734375 C49.52515625 51.49019531 50.1284375 52.20304688 50.75 52.9375 C51.36359375 53.64777344 51.9771875 54.35804688 52.609375 55.08984375 C54 57 54 57 54 59 C54.66 59 55.32 59 56 59 C56 59.66 56 60.32 56 61 C56.66 61 57.32 61 58 61 C56.68692751 63.91346593 55.28818412 65.9450979 52.99609375 68.1640625 C52.42052734 68.72867188 51.84496094 69.29328125 51.25195312 69.875 C50.65318359 70.4525 50.05441406 71.03 49.4375 71.625 C48.24650616 72.78160151 47.05759995 73.94035778 45.87109375 75.1015625 C45.34443115 75.61025879 44.81776855 76.11895508 44.27514648 76.64306641 C42.8835783 77.99400105 42.8835783 77.99400105 42 80 C41.34 80 40.68 80 40 80 C39.01 81.98 39.01 81.98 38 84 C37.34 84 36.68 84 36 84 C36 84.66 36 85.32 36 86 C35.34 86 34.68 86 34 86 C34 86.66 34 87.32 34 88 C25.43987272 97.03821949 13.81885115 104.0122381 1.1875 104.5 C-12.97289828 103.96599278 -24.17168601 98.62292411 -33.8828125 88.609375 C-40.52912606 80.41797747 -43.17856008 72.03098819 -43.1875 61.6875 C-43.19974609 60.95337891 -43.21199219 60.21925781 -43.22460938 59.46289062 C-43.25254323 48.96907116 -39.32655166 39.21786694 -32.12768555 31.56005859 C-30.64347297 30.07662412 -29.14588911 28.60647373 -27.63671875 27.1484375 C-26.84473587 26.36352936 -26.05275299 25.57862122 -25.23677063 24.76992798 C-22.73194777 22.29284599 -20.2102264 19.83383244 -17.6875 17.375 C-15.97475848 15.68736725 -14.26315814 13.99857551 -12.55273438 12.30859375 C-8.38158396 8.19224308 -4.19645684 4.0905403 0 0 Z " fill="#E7E9F0" transform="translate(442,461)"/>
<path d="M0 0 C7.59 0 15.18 0 23 0 C23 27.39 23 54.78 23 83 C15.41 83 7.82 83 0 83 C0 55.61 0 28.22 0 0 Z " fill="#333580" transform="translate(543,708)"/>
<path d="M0 0 C1.96257951 1.48202266 3.65347213 2.97928805 5.33984375 4.765625 C5.86707031 5.25289062 6.39429688 5.74015625 6.9375 6.2421875 C11.16473926 10.83445299 11.89875806 17.26657222 11.6875 23.24609375 C10.65425448 30.73422141 7.00338904 35.96392356 1.33984375 40.765625 C0.67984375 40.765625 0.01984375 40.765625 -0.66015625 40.765625 C-0.66015625 41.425625 -0.66015625 42.085625 -0.66015625 42.765625 C-6.71902634 44.78524836 -14.10239155 44.85270572 -20.03515625 42.328125 C-26.0415467 38.82439724 -29.44344566 32.15378189 -31.66015625 25.765625 C-32.75955814 18.87518757 -30.93968852 12.81852379 -27.66015625 6.765625 C-26.10232156 4.69161225 -24.72088613 3.39251701 -22.66015625 1.765625 C-22.00015625 1.765625 -21.34015625 1.765625 -20.66015625 1.765625 C-20.66015625 1.105625 -20.66015625 0.445625 -20.66015625 -0.234375 C-14.51366391 -2.28320578 -5.9783215 -2.77408164 0 0 Z " fill="#E8EAF1" transform="translate(635.66015625,729.234375)"/>
<path d="M0 0 C4.60853422 2.64412952 7.54791307 4.97038756 9.8984375 9.83203125 C10.85927145 15.77601382 10.14561482 20.69066715 6.8984375 25.83203125 C6.2384375 25.83203125 5.5784375 25.83203125 4.8984375 25.83203125 C4.8984375 26.49203125 4.8984375 27.15203125 4.8984375 27.83203125 C-0.7139159 29.96558239 -5.81218994 30.19036942 -11.76171875 30.390625 C-15.31632762 30.86041541 -17.13786749 31.90588631 -20.1015625 33.83203125 C-21.0915625 33.83203125 -22.0815625 33.83203125 -23.1015625 33.83203125 C-23.1634375 32.82140625 -23.2253125 31.81078125 -23.2890625 30.76953125 C-23.70760755 27.59239381 -24.5923024 25.9990847 -26.6640625 23.58203125 C-29.60974484 19.73795899 -29.93687863 16.330141 -29.7265625 11.55859375 C-28.49916994 6.2040937 -24.79559167 2.61432565 -20.3125 -0.3515625 C-14.1913204 -2.61185674 -6.05195543 -2.27901093 0 0 Z " fill="#78B6DB" transform="translate(584.1015625,361.16796875)"/>
<path d="M0 0 C27.39 0 54.78 0 83 0 C83 7.26 83 14.52 83 22 C63.86 22 44.72 22 25 22 C25 29.26 25 36.52 25 44 C42.16 44 59.32 44 77 44 C77 51.26 77 58.52 77 66 C59.84 66 42.68 66 25 66 C25 73.92 25 81.84 25 90 C44.47 90 63.94 90 84 90 C84 97.26 84 104.52 84 112 C56.28 112 28.56 112 0 112 C0 75.04 0 38.08 0 0 Z M1 1 C1 37.3 1 73.6 1 111 C27.73 111 54.46 111 82 111 C82 104.4 82 97.8 82 91 C62.86 91 43.72 91 24 91 C24 82.42 24 73.84 24 65 C41.16 65 58.32 65 76 65 C76 58.73 76 52.46 76 46 C58.84 45.67 41.68 45.34 24 45 C23.505 32.625 23.505 32.625 23 20 C42.47 20 61.94 20 82 20 C82 13.73 82 7.46 82 1 C55.27 1 28.54 1 1 1 Z " fill="#7C7FB0" transform="translate(355,680)"/>
<path d="M0 0 C3.54500022 1.95876283 6.18254853 4.36509707 8 8 C8.23188406 15.30434783 8.23188406 15.30434783 7 19 C6.34 19 5.68 19 5 19 C4.34 20.32 3.68 21.64 3 23 C2.34 23 1.68 23 1 23 C1 23.66 1 24.32 1 25 C-3.95337361 26.65112454 -8.9639362 26.85967138 -13.8125 24.8125 C-16.86233368 22.28549495 -19.22459283 19.55081434 -21 16 C-20.9129796 14.28766312 -20.75902838 12.57824594 -20.5625 10.875 C-20.46066406 9.96492187 -20.35882812 9.05484375 -20.25390625 8.1171875 C-20.17011719 7.41851563 -20.08632813 6.71984375 -20 6 C-19.34 6 -18.68 6 -18 6 C-17.7525 5.38125 -17.505 4.7625 -17.25 4.125 C-13.81478365 -1.71486779 -5.90714772 -0.90997837 0 0 Z " fill="#383A84" transform="translate(561,671)"/>
<path d="M0 0 C0 0.66 0 1.32 0 2 C-2.76244849 0.91176272 -5.41866731 -0.2106636 -8.07421875 -1.546875 C-12.5839748 -3.47405551 -16.90252319 -3.49255368 -21.75 -3.4375 C-22.63091309 -3.43427734 -23.51182617 -3.43105469 -24.41943359 -3.42773438 C-31.27108036 -3.28133706 -36.7718827 -1.87057258 -43 1 C-43.66 1 -44.32 1 -45 1 C-44.67 0.01 -44.34 -0.98 -44 -2 C-28.95069976 -9.2352405 -14.45097708 -7.45306298 0 0 Z " fill="#ACD6EC" transform="translate(596,342)"/>
<path d="M0 0 C1.76150391 0.03383789 1.76150391 0.03383789 3.55859375 0.06835938 C6.45701637 0.1272704 9.35286427 0.20948369 12.25 0.3125 C11.92 1.6325 11.59 2.9525 11.25 4.3125 C10.92 3.6525 10.59 2.9925 10.25 2.3125 C6.85248839 2.30621745 3.45919365 2.36594358 0.0625 2.4375 C-0.89720703 2.43492187 -1.85691406 2.43234375 -2.84570312 2.4296875 C-7.9962791 2.43478779 -7.9962791 2.43478779 -12.43603516 4.67089844 C-13.62097142 6.15751139 -14.6931057 7.73228911 -15.75 9.3125 C-16.74 9.6425 -17.73 9.9725 -18.75 10.3125 C-15.11973429 -0.275775 -10.4077694 -0.37625418 0 0 Z " fill="#6061A1" transform="translate(517.75,707.6875)"/>
<path d="M0 0 C1.01725914 0.00212242 1.01725914 0.00212242 2.05506897 0.00428772 C4.19431203 0.0098288 6.3334455 0.02236972 8.47265625 0.03515625 C9.93424327 0.04017889 11.39583194 0.04474045 12.85742188 0.04882812 C16.41670151 0.0597788 19.97591816 0.0770018 23.53515625 0.09765625 C23.53515625 0.42765625 23.53515625 0.75765625 23.53515625 1.09765625 C22.41995605 1.11953003 22.41995605 1.11953003 21.28222656 1.1418457 C-6.02308991 1.43452947 -6.02308991 1.43452947 -32.4921875 7.546875 C-34.8720861 8.21136154 -37.00611038 8.18745347 -39.46484375 8.09765625 C-39.13484375 7.43765625 -38.80484375 6.77765625 -38.46484375 6.09765625 C-36.25927734 5.42749023 -36.25927734 5.42749023 -33.36328125 4.84375 C-32.31527344 4.62912109 -31.26726562 4.41449219 -30.1875 4.19335938 C-29.08277344 3.97615234 -27.97804688 3.75894531 -26.83984375 3.53515625 C-25.21755859 3.20354492 -25.21755859 3.20354492 -23.5625 2.86523438 C-15.66533264 1.26940874 -8.08523148 -0.03354868 0 0 Z " fill="#99DFF3" transform="translate(495.46484375,277.90234375)"/>
<path d="M0 0 C2.0625 0.4375 2.0625 0.4375 4 1 C3.56171875 1.36681885 3.1234375 1.7336377 2.671875 2.11157227 C-3.88784601 7.71716719 -9.92922433 13.81668528 -16 19.9375 C-17.07137887 21.01390654 -18.14299182 22.09008014 -19.21484375 23.16601562 C-21.81259638 25.77466745 -24.40717962 28.38644471 -27 31 C-27 28 -27 28 -24.953125 25.66015625 C-24.06109375 24.80292969 -23.1690625 23.94570313 -22.25 23.0625 C-20.92742188 21.78052734 -20.92742188 21.78052734 -19.578125 20.47265625 C-17.9708561 18.93113926 -16.35731772 17.39610027 -14.734375 15.87109375 C-12.77617585 14.01686129 -12.77617585 14.01686129 -12 11 C-10.56111125 9.75732336 -9.11700329 8.51924358 -7.62890625 7.3359375 C-5.25298425 5.3873396 -3.13993703 3.20107809 -1 1 C-0.67 0.67 -0.34 0.34 0 0 Z " fill="#BED5E9" transform="translate(547,343)"/>
<path d="M0 0 C8.58 0 17.16 0 26 0 C26 0.99 26 1.98 26 3 C17.42 3 8.84 3 0 3 C0 2.01 0 1.02 0 0 Z " fill="#6566A5" transform="translate(448,708)"/>
<path d="M0 0 C0.99 0.33 1.98 0.66 3 1 C-4.92 8.92 -12.84 16.84 -21 25 C-21 22 -21 22 -19.47119141 20.14648438 C-18.77171387 19.46908203 -18.07223633 18.79167969 -17.3515625 18.09375 C-16.59359375 17.34996094 -15.835625 16.60617187 -15.0546875 15.83984375 C-14.25289063 15.06769531 -13.45109375 14.29554688 -12.625 13.5 C-11.05254978 11.97094532 -9.48214602 10.43978252 -7.9140625 8.90625 C-7.2123291 8.22884766 -6.5105957 7.55144531 -5.78759766 6.85351562 C-3.82090872 4.92455899 -3.82090872 4.92455899 -2 2 C-1.34 2 -0.68 2 0 2 C0 1.34 0 0.68 0 0 Z " fill="#8794D4" transform="translate(447,485)"/>
<path d="M0 0 C5.59995687 0.60079007 10.52609557 2.02559137 15.8125 3.9375 C16.57498047 4.20240234 17.33746094 4.46730469 18.12304688 4.74023438 C23.74260603 6.74260603 23.74260603 6.74260603 26 9 C20.88785762 8.40479584 16.19336546 7.27986457 11.3125 5.625 C10.66216797 5.41617188 10.01183594 5.20734375 9.34179688 4.9921875 C5.74855177 3.79077629 2.87257758 2.48714312 0 0 Z " fill="#AAA6E3" transform="translate(435,609)"/>
<path d="M0 0 C0.5775 0.226875 1.155 0.45375 1.75 0.6875 C0.326875 1.05875 0.326875 1.05875 -1.125 1.4375 C-4.8299251 2.91947004 -4.59606702 3.33237882 -6.25 6.6875 C-7.74377563 8.31609293 -9.28988064 9.89766976 -10.875 11.4375 C-12.10089844 12.63632812 -12.10089844 12.63632812 -13.3515625 13.859375 C-13.97804688 14.46265625 -14.60453125 15.0659375 -15.25 15.6875 C-15.25 11.62395091 -13.72015238 10.63579419 -11 7.6875 C-10.21109375 6.82125 -9.4221875 5.955 -8.609375 5.0625 C-3.14609764 -0.43695801 -3.14609764 -0.43695801 0 0 Z " fill="#BDD2E9" transform="translate(421.25,341.3125)"/>
<path d="M0 0 C0.68513672 -0.01224609 1.37027344 -0.02449219 2.07617188 -0.03710938 C3.86484112 -0.04237533 5.65298848 0.06549979 7.4375 0.1875 C8.0975 0.8475 8.7575 1.5075 9.4375 2.1875 C3.4975 2.1875 -2.4425 2.1875 -8.5625 2.1875 C-8.5625 2.8475 -8.5625 3.5075 -8.5625 4.1875 C-9.366875 4.47625 -10.17125 4.765 -11 5.0625 C-13.6951468 5.92012568 -13.6951468 5.92012568 -14.5625 8.1875 C-15.2225 7.8575 -15.8825 7.5275 -16.5625 7.1875 C-15.27284824 5.81187146 -13.93560707 4.47983607 -12.5625 3.1875 C-11.9025 3.1875 -11.2425 3.1875 -10.5625 3.1875 C-10.5625 2.5275 -10.5625 1.8675 -10.5625 1.1875 C-6.99164986 -0.00278338 -3.7164317 0.00351602 0 0 Z " fill="#AEB2CE" transform="translate(625.5625,727.8125)"/>
<path d="M0 0 C1.32 0.33 2.64 0.66 4 1 C-0.625 6.875 -0.625 6.875 -4 8 C-2.87548273 5.0280615 -1.77706209 2.66559313 0 0 Z " fill="#4D4F92" transform="translate(503,710)"/>
<path d="M0 0 C0.6875 1.6875 0.6875 1.6875 1 4 C-0.69759868 7.66323925 -2.63829241 9.79750193 -6 12 C-6 7.72159739 -3.71595568 6.17965543 -1 3 C-0.67 2.01 -0.34 1.02 0 0 Z " fill="#4F5494" transform="translate(645,758)"/>
<path d="M0 0 C-3.75467691 3.05936637 -7.08113061 5 -12 5 C-12 4.34 -12 3.68 -12 3 C-4.71428571 -0.42857143 -4.71428571 -0.42857143 0 0 Z " fill="#ACAEE4" transform="translate(580,608)"/>
<path d="M0 0 C0.99 0.33 1.98 0.66 3 1 C0.03 3.97 -2.94 6.94 -6 10 C-6.66 9.67 -7.32 9.34 -8 9 C-5.36 6.03 -2.72 3.06 0 0 Z " fill="#88B5DC" transform="translate(602,411)"/>
<path d="M0 0 C0.33 0.66 0.66 1.32 1 2 C0.00390625 4.3828125 0.00390625 4.3828125 -1.4375 7.125 C-1.91058594 8.03507813 -2.38367188 8.94515625 -2.87109375 9.8828125 C-3.24363281 10.58148437 -3.61617188 11.28015625 -4 12 C-4.66 12 -5.32 12 -6 12 C-5.36934243 8.78147169 -4.21979305 6.49198931 -2.4375 3.75 C-1.98246094 3.04359375 -1.52742188 2.3371875 -1.05859375 1.609375 C-0.53458984 0.81273437 -0.53458984 0.81273437 0 0 Z " fill="#C2C4D9" transform="translate(509,739)"/>
<path d="M0 0 C0.66 0 1.32 0 2 0 C2.2475 0.804375 2.495 1.60875 2.75 2.4375 C3.72238859 5.171081 3.72238859 5.171081 6.125 5.8125 C7.053125 5.9053125 7.053125 5.9053125 8 6 C5.35261084 7.4606285 4.10551666 8 1 8 C0.67 5.36 0.34 2.72 0 0 Z " fill="#9FCEEA" transform="translate(560,387)"/>
<path d="M0 0 C4.29 0 8.58 0 13 0 C13 0.33 13 0.66 13 1 C12.37351562 1.04898438 11.74703125 1.09796875 11.1015625 1.1484375 C10.28429687 1.22320313 9.46703125 1.29796875 8.625 1.375 C7.81289063 1.44460938 7.00078125 1.51421875 6.1640625 1.5859375 C3.79665809 1.82892588 3.79665809 1.82892588 2 4 C2 3.34 2 2.68 2 2 C1.34 2 0.68 2 0 2 C0 1.34 0 0.68 0 0 Z " fill="#272974" transform="translate(450,710)"/>
</svg>
